<svg xmlns="http://www.w3.org/2000/svg" width="1920" height="1080" viewBox="0 0 1920 1080">
  <defs>
    <linearGradient id="bg" x1="0" y1="0" x2="1" y2="1">
      <stop offset="0" stop-color="#07133a"/>
      <stop offset="0.5" stop-color="#0c1f64"/>
      <stop offset="1" stop-color="#050a1e"/>
    </linearGradient>
    <linearGradient id="line" x1="0" y1="0" x2="1" y2="0">
      <stop offset="0" stop-color="#8aa5ff" stop-opacity="0.22"/>
      <stop offset="1" stop-color="#8aa5ff" stop-opacity="0.02"/>
    </linearGradient>
  </defs>
  <rect width="1920" height="1080" fill="url(#bg)"/>

  <!-- Curved lines to mimic the provided artwork -->
  <g fill="none" stroke="url(#line)" stroke-width="2">
    <path d="M-200,760 C400,520 820,240 1020,160 C1320,40 1500,220 1480,560" opacity="0.35"/>
    <path d="M-220,800 C380,560 820,280 1040,200 C1340,80 1550,260 1530,600" opacity="0.32"/>
    <path d="M-240,840 C360,600 820,320 1060,240 C1360,120 1600,300 1580,640" opacity="0.30"/>
    <path d="M-260,880 C340,640 820,360 1080,280 C1380,160 1650,340 1630,680" opacity="0.28"/>
    <path d="M-280,920 C320,680 820,400 1100,320 C1400,200 1700,380 1680,720" opacity="0.26"/>
    <path d="M-300,960 C300,720 820,440 1120,360 C1420,240 1750,420 1730,760" opacity="0.24"/>
    <path d="M-320,1000 C280,760 820,480 1140,400 C1440,280 1800,460 1780,800" opacity="0.22"/>
    <path d="M-340,1040 C260,800 820,520 1160,440 C1460,320 1850,500 1830,840" opacity="0.20"/>
  </g>
</svg>
