<svg xmlns="http://www.w3.org/2000/svg" width="560" height="430" viewBox="0 0 560 430">
  <defs>
    <filter id="softShadow" x="-20%" y="-20%" width="140%" height="140%">
      <feDropShadow dx="0" dy="6" stdDeviation="6" flood-color="#000" flood-opacity="0.12"/>
    </filter>
  </defs>
  <rect width="560" height="430" fill="none"/>
  <!-- Hand-drawn quote frame -->
  <g filter="url(#softShadow)" stroke="#3b3b3b" stroke-width="4" fill="none" stroke-linecap="round" stroke-linejoin="round">
    <path d="M32 72 C40 62, 70 56, 96 58 L504 58 C524 58, 528 66, 528 86 L528 344 C528 366, 520 374, 498 374 L70 374 C50 374, 42 368, 42 350 L42 92 C42 82, 36 78, 32 72 Z"/>
    <path d="M28 76 C44 60, 70 52, 110 54 L510 54 C538 54, 546 68, 546 92 L546 350 C546 378, 532 390, 500 390 L64 390 C40 390, 28 380, 28 354 L28 96 C28 88, 24 82, 28 76 Z" opacity=".35"/>
    <path d="M36 84 L36 96" opacity=".5"/>
  </g>
  <!-- Quotes -->
  <g fill="#3b3b3b" opacity="0.8">
    <!-- opening quotes -->
    <path d="M112 118c0-12 9-20 20-20 8 0 14 6 14 14s-6 14-14 14h-2c-1 5-4 9-8 12-3-6-10-11-10-20z"/>
    <path d="M152 118c0-12 9-20 20-20 8 0 14 6 14 14s-6 14-14 14h-2c-1 5-4 9-8 12-3-6-10-11-10-20z"/>
    <!-- closing quotes -->
    <path d="M424 306c0 12-9 20-20 20-8 0-14-6-14-14s6-14 14-14h2c1-5 4-9 8-12 3 6 10 11 10 20z"/>
    <path d="M464 306c0 12-9 20-20 20-8 0-14-6-14-14s6-14 14-14h2c1-5 4-9 8-12 3 6 10 11 10 20z"/>
  </g>
</svg>
